<?xml version="1.0" encoding="UTF-8"?>
<svg xmlns="http://www.w3.org/2000/svg" version="1.1" viewBox="0 0 225.03 186.66">
  <!-- Generator: Adobe Illustrator 28.7.1, SVG Export Plug-In . SVG Version: 1.2.0 Build 142)  -->
  <g>
    <g id="Layer_1">
      <g>
        <path d="M113.27,0C64.23,0,24.49,39.75,24.49,88.78h15c0-40.68,33.1-73.78,73.78-73.78s73.78,33.1,73.78,73.78-33.1,73.78-73.78,73.78v15c49.03,0,88.78-39.75,88.78-88.78S162.3,0,113.27,0Z"/>
        <path d="M24.83,71.24h9.75c4.25,0,7.71,3.45,7.71,7.71v57.39c0,4.25-3.45,7.71-7.71,7.71h-9.75c-12.79,0-23.17-10.38-23.17-23.17v-26.46c0-12.79,10.38-23.17,23.17-23.17Z" transform="translate(-14.86 4.14) rotate(-8.05)"/>
        <rect x="90.49" y="162.57" width="45.56" height="24.09" rx="8.17" ry="8.17"/>
        <path d="M205.91,72.24h9.75c4.25,0,7.71,3.45,7.71,7.71v57.39c0,4.25-3.45,7.71-7.71,7.71h-9.75c-12.79,0-23.17-10.38-23.17-23.17v-26.46c0-12.79,10.38-23.17,23.17-23.17Z" transform="translate(388.89 244.67) rotate(-171.95)"/>
        <path d="M113.27,29.04c-32.99,0-59.74,26.75-59.74,59.74,0,15.67,6.04,29.93,15.92,40.59l-6.51,21.21c-1.28,4.17,3.09,7.84,6.97,5.85l21.99-11.26c.21-.11.41-.23.6-.36,6.47,2.4,13.47,3.72,20.78,3.72,32.99,0,59.74-26.75,59.74-59.74s-26.75-59.74-59.74-59.74ZM80.02,76.58c6.74,0,12.21,5.46,12.21,12.21s-5.46,12.21-12.21,12.21-12.21-5.46-12.21-12.21,5.46-12.21,12.21-12.21ZM112.51,100.99c-6.74,0-12.21-5.46-12.21-12.21s5.46-12.21,12.21-12.21,12.21,5.46,12.21,12.21-5.46,12.21-12.21,12.21ZM145.01,100.99c-6.74,0-12.21-5.46-12.21-12.21s5.46-12.21,12.21-12.21,12.21,5.46,12.21,12.21-5.46,12.21-12.21,12.21Z"/>
      </g>
    </g>
  </g>
</svg>